<?xml version="1.0" encoding="UTF-8"?>
<svg xmlns="http://www.w3.org/2000/svg" version="1.1" xmlns:xlink="http://www.w3.org/1999/xlink" viewBox="0 0 14400 14400">
  <defs>
    <style>
      .cls-1 {
        fill: none;
      }

      .cls-2 {
        fill: #ff851b;
      }

      .cls-3 {
        clip-path: url(#clippath-1);
      }

      .cls-4 {
        fill: #47851b;
      }

      .cls-5 {
        fill: #5b9b37;
      }

      .cls-6 {
        clip-path: url(#clippath);
      }
    </style>
    <clipPath id="clippath">
      <rect class="cls-1" x="7144.1" y="7176.3" width="130.1" height="22.4"/>
    </clipPath>
    <clipPath id="clippath-1">
      <rect class="cls-1" x="7172.6" y="7199.5" width="124.9" height="22.3"/>
    </clipPath>
  </defs>
  <!-- Generator: Adobe Illustrator 28.6.0, SVG Export Plug-In . SVG Version: 1.2.0 Build 709)  -->
  <g>
    <g id="Layer_1">
      <g id="Layer_1-2" data-name="Layer_1">
        <path class="cls-5" d="M7118.8,7175.5l-13.1,28h-2.3l.5-1.1,11.9-26.9h3.1-.1Z"/>
        <path class="cls-5" d="M7137.2,7175.5l-11.2,17.6h-2.6l10.8-17.6h3.1-.1Z"/>
        <path class="cls-5" d="M7125,7175.5l-14.7,28h-2.3l.5-1.1,13.4-26.9h3.1Z"/>
        <path class="cls-5" d="M7131.1,7175.5l-9.8,16.8-.4.7h-2.6l9.7-17.5h3.1Z"/>
        <path class="cls-5" d="M7124.7,7195.3l-17.9,28.2h-1.8l17.2-28.2h2.5Z"/>
        <path class="cls-5" d="M7119.7,7195.3l-16.4,28.2h-1.8l15.6-28.2h2.6Z"/>
        <path class="cls-5" d="M7129.8,7195.3l-19.6,28.2h-1.8l18.8-28.2h2.6Z"/>
        <path class="cls-5" d="M7134.9,7195.3l-21.1,28.2h-1.8l20.4-28.2h2.5Z"/>
        <g class="cls-6">
          <path class="cls-2" d="M7266.7,7196.2c1.1,0,2-.3,2.8-.9s1.4-1.3,1.8-2.2c.4-.9.6-1.9.6-2.8s-.2-1.9-.6-2.8-1-1.6-1.7-2.1c-.8-.5-1.7-.8-2.7-.8s-1.9.3-2.7.9c-.8.6-1.3,1.3-1.8,2.2-.4.9-.6,1.9-.6,2.9s.2,1.9.6,2.8c.4.9,1,1.6,1.7,2.1s1.6.8,2.6.8v-.1ZM7266.6,7198.5c-1.4,0-2.7-.4-3.8-1.1-1.1-.8-2-1.7-2.6-3-.6-1.2-.9-2.6-.9-4s.2-2.1.5-3.1c.4-1,.9-1.9,1.6-2.7.7-.8,1.5-1.4,2.4-1.9s1.9-.7,3-.7,2,.3,2.8.8,1.6,1.1,2.2,1.8v-7c0-.3.1-.6.3-.8.2-.2.5-.3.8-.3s.6.1.8.3.3.5.3.8v19.8c0,.3-.1.6-.3.8s-.5.3-.8.3-.6-.1-.8-.3c-.2-.2-.3-.5-.3-.8v-1.5c-.7.6-1.4,1.2-2.3,1.8-.9.6-1.9.9-3,.9l.1-.1ZM7243.5,7189h10.2c0-.8-.4-1.6-.8-2.2-.5-.7-1.1-1.2-1.8-1.6-.7-.4-1.5-.6-2.4-.6s-1.7.2-2.4.6c-.7.4-1.3.9-1.8,1.6-.5.7-.8,1.4-1,2.2ZM7249.2,7198.5c-1.5,0-2.9-.4-4.1-1.1-1.2-.8-2.2-1.8-2.9-3-.7-1.3-1.1-2.6-1.1-4.2s.3-2.8,1-4,1.6-2.2,2.8-2.9c1.2-.7,2.5-1.1,3.9-1.1s2.6.3,3.7,1c1.1.7,2,1.6,2.7,2.7.7,1.1,1,2.4,1,3.7s0,.9-.3,1.2c-.2.3-.5.5-.9.5h-11.5c.2.9.5,1.7,1,2.4.5.7,1.2,1.3,2,1.8s1.7.7,2.7.7,1.6-.2,2.4-.6c.8-.4,1.5-.9,2-1.5.2-.3.5-.5.9-.5s.6.1.8.3c.2.2.3.5.3.8s0,.5-.3.8c-.8.9-1.7,1.6-2.8,2.2-1.1.5-2.2.8-3.4.8h.1ZM7225.2,7189h10.2c0-.8-.4-1.6-.8-2.2-.5-.7-1.1-1.2-1.8-1.6-.7-.4-1.5-.6-2.4-.6s-1.7.2-2.4.6c-.7.4-1.3.9-1.8,1.6-.5.7-.8,1.4-1,2.2ZM7230.9,7198.5c-1.5,0-2.9-.4-4.1-1.1-1.2-.8-2.2-1.8-2.9-3-.7-1.3-1.1-2.6-1.1-4.2s.3-2.8,1-4,1.6-2.2,2.8-2.9c1.2-.7,2.5-1.1,3.9-1.1s2.6.3,3.7,1c1.1.7,2,1.6,2.7,2.7.7,1.1,1,2.4,1,3.7s0,.9-.3,1.2c-.2.3-.5.5-1,.5h-11.5c.2.9.5,1.7,1,2.4.5.7,1.2,1.3,2,1.8s1.7.7,2.6.7,1.6-.2,2.4-.6c.8-.4,1.5-.9,2-1.5.2-.3.5-.5.9-.5s.6.1.8.3c.2.2.3.5.3.8s0,.5-.3.8c-.8.9-1.7,1.6-2.8,2.2-1.1.5-2.2.8-3.4.8h.3ZM7205,7190.3c0-1.5.3-2.8,1-4s1.6-2.2,2.8-3c1.2-.8,2.5-1.1,3.9-1.1s2,.2,2.9.6,1.6.9,2.3,1.6c.6.7,1.1,1.4,1.5,2.1,0,.2.1.3.1.5,0,.3-.1.6-.3.8-.2.2-.5.3-.8.3s-.4,0-.6-.2c-.2-.1-.4-.3-.4-.5-.4-.8-.9-1.5-1.7-2.1-.8-.6-1.7-.9-2.8-.9s-1.9.3-2.8.8c-.8.5-1.5,1.3-2,2.1-.5.9-.7,1.8-.7,2.9s.2,2,.7,2.9,1.1,1.6,2,2.1c.8.5,1.7.8,2.8.8s2-.3,2.8-.9,1.4-1.3,1.7-2c0-.2.2-.4.4-.5.2-.1.4-.2.6-.2.3,0,.6.1.8.3.2.2.3.5.3.8s0,.3-.1.5c-.3.8-.8,1.5-1.5,2.1-.6.7-1.4,1.2-2.3,1.6s-1.9.6-2.9.6-2.8-.4-3.9-1.1c-1.2-.8-2.1-1.8-2.8-3-.7-1.2-1-2.6-1-4.1v.2ZM7200.8,7176.6c.3,0,.6.1.8.3.2.2.3.5.3.8s0,.5-.3.7l-6.5,8.7,7.2,9.6c.2.2.3.5.3.7s-.1.6-.3.8c-.2.2-.5.3-.8.3s-.7-.2-.9-.5l-6.8-9-6.8,9c-.2.3-.6.5-1,.5s-.6-.1-.8-.3c-.2-.2-.3-.5-.3-.8s0-.5.3-.7l7.2-9.5-6.7-8.9c-.2-.2-.3-.5-.3-.7s.1-.6.3-.8c.2-.2.5-.3.8-.3s.7.2,1,.5l6.2,8.3,6.1-8.2c0-.1.2-.2.4-.3.2,0,.4-.1.5-.1l.1-.1ZM7174.6,7184.4c-1,0-2,.3-2.8.8s-1.5,1.3-2,2.2-.7,1.8-.7,2.9.2,2,.7,2.9,1.1,1.6,2,2.2c.8.5,1.8.8,2.8.8s2-.3,2.8-.8,1.5-1.3,2-2.2c.5-.9.7-1.9.7-2.9s-.2-2-.7-2.9-1.2-1.6-2-2.2c-.8-.5-1.8-.8-2.8-.8ZM7174.6,7182.1c1.1,0,2.1.2,3.1.7,1,.4,1.8,1,2.5,1.8s1.3,1.6,1.7,2.6c.4,1,.6,2,.6,3.1s-.3,2.8-1,4.1c-.7,1.2-1.6,2.3-2.8,3-1.2.8-2.5,1.2-4,1.2s-2.8-.4-4-1.1c-1.2-.8-2.1-1.8-2.8-3-.7-1.3-1-2.6-1-4.1s.2-2.1.6-3.1,1-1.9,1.7-2.6c.7-.8,1.5-1.4,2.5-1.8.9-.4,2-.7,3.1-.7l-.2-.1ZM7144.1,7187.7c0-1.5.3-3,.8-4.3.5-1.4,1.3-2.6,2.3-3.6s2.1-1.9,3.5-2.5c1.4-.6,2.8-.9,4.5-.9s2.9.2,4.1.6c1.2.4,2.4,1,3.5,1.8.3.2.5.6.5,1s-.1.6-.3.8-.5.3-.8.3-.5,0-.7-.2c-.9-.6-1.8-1.1-2.9-1.4-1.1-.4-2.2-.5-3.3-.5-1.7,0-3.2.4-4.5,1.2-1.3.8-2.4,1.9-3.1,3.2-.8,1.3-1.1,2.8-1.1,4.5s.4,3.1,1.1,4.4c.7,1.3,1.7,2.2,3,2.9,1.3.7,2.8,1.1,4.5,1.1s2-.1,2.9-.3c1-.2,1.8-.5,2.6-.7v-5.9h-5.2c-.3,0-.6-.1-.8-.3s-.3-.5-.3-.8.1-.6.3-.8.5-.3.8-.3h6.4c.3,0,.6.1.8.3s.3.5.3.8v7.9h0c0,.2,0,.4-.2.7-.1.2-.3.4-.5.4-1,.4-2.1.8-3.3,1.1-1.2.3-2.5.5-3.8.5-2.1,0-4-.4-5.7-1.3s-3-2.2-3.9-3.8c-.9-1.6-1.4-3.5-1.4-5.6l-.1-.3Z"/>
        </g>
        <g class="cls-3">
          <path class="cls-4" d="M7285.2,7205.2c.3,0,.6.1.8.3.2.2.3.5.3.8v1.9c.5-.5.9-.9,1.4-1.4s1.1-.8,1.7-1.2c.6-.3,1.4-.5,2.2-.5,1.4,0,2.5.4,3.4,1.1.8.7,1.5,1.6,1.8,2.8.4,1.2.6,2.4.6,3.7v7.6c0,.3-.1.6-.4.8-.2.2-.5.3-.8.3s-.6-.1-.8-.4c-.2-.2-.3-.5-.3-.8v-7.6c0-.9,0-1.8-.3-2.6-.2-.8-.5-1.4-1-1.9s-1.2-.7-2.1-.7c-1.7,0-3,.5-3.9,1.4s-1.3,2.2-1.3,3.9v7.7c0,.3-.1.6-.3.8s-.5.3-.8.3-.6-.1-.8-.4c-.2-.2-.3-.5-.3-.8v-14.1c0-.3,0-.6.3-.9.2-.2.5-.3.8-.3l-.2.2ZM7268,7212.1h10.2c0-.8-.4-1.6-.8-2.2-.5-.7-1-1.2-1.8-1.6-.7-.4-1.5-.6-2.4-.6s-1.7.2-2.4.6c-.7.4-1.3.9-1.8,1.6-.5.7-.8,1.4-1,2.2ZM7273.6,7221.7c-1.5,0-2.9-.4-4.1-1.1-1.2-.8-2.2-1.8-2.9-3-.7-1.3-1.1-2.6-1.1-4.2s.3-2.8,1-4,1.6-2.2,2.8-2.9c1.2-.7,2.5-1.1,3.9-1.1s2.6.3,3.7,1c1.1.7,2,1.6,2.7,2.7.7,1.1,1,2.4,1,3.7s0,.9-.3,1.2c-.2.3-.5.5-1,.5h-11.4c.2.9.5,1.7,1,2.4s1.2,1.3,2,1.8,1.7.7,2.6.7,1.6-.2,2.4-.6c.8-.4,1.4-.9,2-1.5.2-.3.5-.5.9-.5s.6.1.8.3.3.5.3.8,0,.5-.3.8c-.8.9-1.7,1.6-2.8,2.2-1.1.5-2.2.8-3.4.8h.2ZM7249.7,7212.1h10.2c0-.8-.4-1.6-.8-2.2-.5-.7-1-1.2-1.8-1.6-.7-.4-1.5-.6-2.4-.6s-1.7.2-2.4.6c-.7.4-1.3.9-1.8,1.6-.5.7-.8,1.4-1,2.2ZM7255.3,7221.7c-1.5,0-2.9-.4-4.1-1.1-1.2-.8-2.2-1.8-2.9-3-.7-1.3-1.1-2.6-1.1-4.2s.3-2.8,1-4,1.6-2.2,2.8-2.9c1.2-.7,2.5-1.1,3.9-1.1s2.6.3,3.7,1c1.1.7,2,1.6,2.7,2.7.7,1.1,1,2.4,1,3.7s0,.9-.3,1.2c-.2.3-.5.5-1,.5h-11.4c.2.9.5,1.7,1,2.4s1.2,1.3,2,1.8,1.7.7,2.6.7,1.6-.2,2.4-.6c.8-.4,1.4-.9,2-1.5.2-.3.5-.5.9-.5s.6.1.8.3.3.5.3.8,0,.5-.3.8c-.8.9-1.7,1.6-2.8,2.2-1.1.5-2.2.8-3.4.8h.2ZM7246.2,7206.7c0,.3,0,.5-.3.8-.2.2-.4.4-.6.4-.3,0-.6,0-.9-.2-.3-.2-.6-.2-1-.2-1,0-1.8.2-2.4.7-.6.4-1,1-1.2,1.7s-.4,1.4-.4,2.2v8.6c0,.3,0,.6-.3.8-.2.2-.5.4-.9.4s-.7-.1-.9-.4c-.2-.2-.3-.5-.3-.8v-13.9c0-.4.1-.7.4-.9.3-.2.5-.4.8-.4s.6.1.7.4c.2.2.3.6.3,1v1.7c.3-.5.6-1,1-1.4.4-.5.9-.9,1.4-1.2.5-.3,1.1-.5,1.7-.5.8,0,1.5.1,2.1.3.6.2.9.6.9,1.2l-.1-.3ZM7214.1,7210.9c0-1.5.3-3,.8-4.3.5-1.4,1.3-2.6,2.3-3.6s2.2-1.9,3.5-2.5c1.4-.6,2.8-.9,4.5-.9s2.9.2,4.1.6,2.4,1,3.5,1.8c.3.2.5.6.5,1s-.1.6-.3.8c-.2.2-.5.3-.8.3s-.5,0-.7-.2c-.8-.6-1.8-1.1-2.9-1.4-1.1-.4-2.2-.5-3.3-.5-1.7,0-3.2.4-4.5,1.2-1.3.8-2.4,1.9-3.1,3.2-.8,1.3-1.1,2.8-1.1,4.5s.4,3.1,1.1,4.4c.7,1.3,1.7,2.2,3,2.9s2.8,1.1,4.5,1.1,2-.1,2.9-.3c1-.2,1.8-.5,2.6-.7v-5.9h-5.2c-.3,0-.6-.1-.8-.3-.2-.2-.3-.5-.3-.8s.1-.6.3-.8c.2-.2.5-.3.8-.3h6.4c.3,0,.6.1.8.3s.3.5.3.8v7.9h0c0,.2,0,.4-.2.7-.1.2-.3.4-.5.4-1,.4-2.1.8-3.3,1.1s-2.4.5-3.8.5c-2.1,0-4-.4-5.7-1.3-1.7-.9-3-2.2-3.9-3.8s-1.4-3.5-1.4-5.6l-.1-.3ZM7203,7207.6c-1,0-2,.3-2.8.8s-1.5,1.3-2,2.2-.7,1.8-.7,2.9.2,2,.7,2.9,1.1,1.6,2,2.2c.8.5,1.8.8,2.8.8s2-.3,2.8-.8,1.5-1.3,2-2.2.7-1.9.7-2.9-.2-2-.7-2.9-1.2-1.6-2-2.2c-.8-.5-1.8-.8-2.8-.8ZM7203,7205.2c1.1,0,2.1.2,3.1.7,1,.4,1.8,1,2.5,1.8s1.3,1.6,1.7,2.6c.4,1,.6,2,.6,3.1s-.3,2.8-1,4.1c-.7,1.2-1.6,2.3-2.8,3-1.2.8-2.5,1.2-4,1.2s-2.8-.4-4-1.1c-1.2-.8-2.1-1.8-2.8-3-.7-1.3-1-2.6-1-4.1s.2-2.1.6-3.1,1-1.9,1.7-2.6c.7-.8,1.5-1.4,2.5-1.8.9-.4,2-.7,3.1-.7l-.2-.1ZM7172.6,7210.9c0-1.5.3-3,.8-4.3.5-1.4,1.3-2.6,2.3-3.6s2.1-1.9,3.5-2.5,2.8-.9,4.5-.9,2.9.2,4.1.6,2.4,1,3.5,1.8c.3.2.5.6.5,1s-.1.6-.3.8-.5.3-.8.3-.5,0-.7-.2c-.9-.6-1.8-1.1-2.9-1.4-1.1-.4-2.2-.5-3.3-.5-1.7,0-3.2.4-4.5,1.2-1.3.8-2.4,1.9-3.1,3.2-.8,1.3-1.1,2.8-1.1,4.5s.4,3.1,1.1,4.4c.7,1.3,1.7,2.2,3,2.9s2.8,1.1,4.5,1.1,2-.1,2.9-.3c1-.2,1.8-.5,2.6-.7v-5.9h-5.2c-.3,0-.6-.1-.8-.3-.2-.2-.3-.5-.3-.8s.1-.6.3-.8c.2-.2.5-.3.8-.3h6.4c.3,0,.6.1.8.3.2.2.3.5.3.8v7.9h0c0,.2,0,.4-.2.7-.1.2-.3.4-.5.4-1,.4-2.1.8-3.3,1.1-1.2.3-2.5.5-3.8.5-2.1,0-4-.4-5.7-1.3-1.7-.9-3-2.2-3.9-3.8s-1.4-3.5-1.4-5.6l-.1-.3Z"/>
        </g>
      </g>
    </g>
  </g>
</svg>